Coordinates
version=1
nRows=12
nColumns=34
inDegrees=yes

Units are S.I. units (second, meters, Newtons, ...)
If the header above contains a line with 'inDegrees', this indicates whether rotational values are in degrees (yes) or radians (no).

endheader
time	pelvis_tilt	pelvis_list	pelvis_rotation	pelvis_tx	pelvis_ty	pelvis_tz	hip_flexion_r	hip_adduction_r	hip_rotation_r	knee_angle_r	ankle_angle_r	subtalar_angle_r	mtp_angle_r	hip_flexion_l	hip_adduction_l	hip_rotation_l	knee_angle_l	ankle_angle_l	subtalar_angle_l	mtp_angle_l	lumbar_extension	lumbar_bending	lumbar_rotation	arm_flex_r	arm_add_r	arm_rot_r	elbow_flex_r	pro_sup_r	arm_flex_l	arm_add_l	arm_rot_l	elbow_flex_l	pro_sup_l
      2.73333330	     -2.21622128	      1.90395928	     -1.04443578	      1.75134000	      0.87692823	     -0.09352353	     -2.28807011	     -4.77297259	      4.32870490	      0.00000000	      3.61091625	    -20.42590761	      0.00000000	     -2.20854004	     -3.86043446	     -1.69441690	      1.32564820	      3.58998779	     -5.41501574	      0.00000000	     -5.09421286	      0.68673765	     -1.09270484	      7.99605055	     -9.31083930	     37.98898141	     91.66928837	     92.47155298	      5.83603754	     -9.59743070	     33.46937513	     86.79731775	     90.91937478
      2.75000000	     -2.22078784	      1.91365252	     -1.04568153	      1.75189562	      0.87711470	     -0.09326838	     -2.29602477	     -4.78688372	      4.32909933	      0.00000000	      3.61312517	    -20.42816465	      0.00000000	     -2.20326991	     -3.87321799	     -1.69252970	      1.32162672	      3.58511454	     -5.41034775	      0.00000000	     -5.09214735	      0.69071710	     -1.09172181	      7.99507422	     -9.31103732	     37.98743357	     91.66754175	     92.46926733	      5.83899477	     -9.59605969	     33.46753119	     86.80019330	     90.91753170
      2.76666670	     -2.23065223	      1.92150620	     -1.04561256	      1.75225022	      0.87722571	     -0.09322741	     -2.30502134	     -4.79159575	      4.32901297	      0.00000000	      3.61512767	    -20.43023420	      0.00000000	     -2.20280441	     -3.87842914	     -1.69131120	      1.32072958	      3.58100576	     -5.40650454	      0.00000000	     -5.08989693	      0.69280164	     -1.09003708	      7.99415273	     -9.31118664	     37.98636441	     91.66641885	     92.46752225	      5.84081976	     -9.59555837	     33.46575188	     86.80270376	     90.91609539
      2.78333330	     -2.23413998	      1.92679506	     -1.04636445	      1.75219734	      0.87681916	     -0.09346709	     -2.30847178	     -4.79136431	      4.32896419	      0.00000000	      3.61558593	    -20.43067741	      0.00000000	     -2.20397733	     -3.88171704	     -1.69113439	      1.32104276	      3.58008901	     -5.40564698	      0.00000000	     -5.08941091	      0.69296577	     -1.08948217	      7.99388089	     -9.31124674	     37.98613982	     91.66615873	     92.46715936	      5.84100966	     -9.59566177	     33.46531107	     86.80321437	     90.91579170
      2.80000000	     -2.24761876	      1.91898629	     -1.04152492	      1.75218666	      0.87598817	     -0.09387983	     -2.31943317	     -4.81335494	      4.33005742	      0.00000000	      3.61954739	    -20.43410140	      0.00000000	     -2.20770222	     -3.88632962	     -1.68890838	      1.32022330	      3.57546800	     -5.39961270	      0.00000000	     -5.08395877	      0.69672136	     -1.08639315	      7.99388090	     -9.31399407	     37.98302772	     91.66530866	     92.46455630	      5.84283150	     -9.59448753	     33.46228388	     86.80820617	     90.91367534
      2.81666670	     -2.24659874	      1.91416726	     -1.03898179	      1.75213737	      0.87537451	     -0.09388803	     -2.31835225	     -4.81894543	      4.33078274	      0.00000000	      3.62022637	    -20.43449189	      0.00000000	     -2.20943115	     -3.88535868	     -1.68813706	      1.32011385	      3.57497196	     -5.39837348	      0.00000000	     -5.08309320	      0.69789793	     -1.08601185	      7.99415066	     -9.31494730	     37.98220344	     91.66516365	     92.46408079	      5.84314063	     -9.59393521	     33.46180789	     86.80921089	     90.91330187
      2.83333330	     -2.29099281	      1.95326732	     -0.94490313	      1.75222104	      0.87524934	     -0.09415438	     -2.29227943	     -4.92331321	      4.41651409	      0.00000000	      3.66813053	    -20.45790058	      0.00000000	     -2.19515581	     -3.80048702	     -1.57960664	      1.21129663	      3.58168443	     -5.30193274	      0.00000000	     -5.00916372	      0.82922959	     -1.07620637	      8.04314437	     -9.41838662	     37.89879124	     91.66441829	     92.42701156	      5.87722496	     -9.52011851	     33.43041383	     86.90290736	     90.88521311
      2.85000000	     -2.29117787	      1.94472120	     -0.94431278	      1.75229671	      0.87546349	     -0.09396393	     -2.28909174	     -4.92728404	      4.41691406	      0.00000000	      3.66852271	    -20.45828489	      0.00000000	     -2.19670318	     -3.79846585	     -1.57828701	      1.21168039	      3.58192192	     -5.30105317	      0.00000000	     -5.00887200	      0.82851960	     -1.07638516	      8.04323790	     -9.41900472	     37.89820836	     91.66456798	     92.42665561	      5.87720024	     -9.51973182	     33.43017977	     86.90350938	     90.88493171
      2.86666670	     -2.35165263	      1.90692093	     -1.02691527	      1.75246802	      0.87546607	     -0.09384466	     -2.19393480	     -4.89465421	      4.50556396	      0.00000000	      3.69329471	    -20.46886525	      0.00000000	     -2.20561547	     -3.82833356	     -1.40755146	      1.13520118	      3.64239059	     -5.20434272	      0.00000000	     -4.98569455	      0.79821947	     -1.06880029	      8.05822455	     -9.49867879	     37.83163907	     91.67317778	     92.38716266	      5.86222221	     -9.49185727	     33.39733249	     86.96816651	     90.85354277
      2.88333330	     -2.37842602	      1.90891822	     -0.93778801	      1.75282949	      0.87539906	     -0.09406985	     -2.20330239	     -4.90471092	      4.56204384	      0.00000000	      3.69344365	    -20.46024533	      0.00000000	     -2.19014544	     -3.81052445	     -1.39315164	      1.10588841	      3.67897198	     -5.19405284	      0.00000000	     -4.96532287	      0.82740042	     -1.02676290	      8.05626674	     -9.50755968	     37.81783376	     91.67847985	     92.37020058	      5.84241182	     -9.50035987	     33.37611381	     86.99178725	     90.83934096
      2.90000000	     -2.39269087	      1.90022377	     -0.93898322	      1.75315074	      0.87546997	     -0.09427886	     -2.19827513	     -4.90486019	      4.56751267	      0.00000000	      3.69401163	    -20.45958717	      0.00000000	     -2.20145496	     -3.80239802	     -1.38791131	      1.11293981	      3.68255759	     -5.19116490	      0.00000000	     -4.96482242	      0.82897049	     -1.02548052	      8.05405251	     -9.50927911	     37.81646626	     91.67864717	     92.36820789	      5.84275923	     -9.50205605	     33.37288699	     86.99439646	     90.83762500
      2.91666670	     -2.40918090	      1.89348439	     -0.93936399	      1.75344480	      0.87555251	     -0.09444893	     -2.19746191	     -4.90714151	      4.57773572	      0.00000000	      3.69436148	    -20.45660066	      0.00000000	     -2.20863054	     -3.79405579	     -1.38043438	      1.11888231	      3.68808071	     -5.18764453	      0.00000000	     -4.96430324	      0.83306664	     -1.02259867	      8.05054728	     -9.51173004	     37.81542763	     91.67848177	     92.36586019	      5.84268046	     -9.50522065	     33.36846448	     86.99739631	     90.83555931
